<svg viewBox="0 0 60 60" width="60" height="60" xmlns="http://www.w3.org/2000/svg"><clipPath><path d="M0 1h60v57.3H0z"/></clipPath><g fill="#fff"><path clip-rule="evenodd" d="M6.9 47.9H4.5v.9h2.2v.8H4.5v1.1H7v.8H3.6v-4.4h3.3z" fill-rule="evenodd"/><g clip-path="url(#a)"><path clip-rule="evenodd" d="M9.9 50.3l.4.4c-.2.1-.3.1-.5.1-.5 0-1.2-.3-1.2-1.5s.7-1.5 1.2-1.5 1.2.3 1.2 1.5c0 .3-.1.7-.2 1l-.5-.4zm2 1l-.5-.5c.3-.5.5-1 .5-1.6 0-2.1-1.5-2.3-2.1-2.3s-2.1.3-2.1 2.3c0 2.1 1.5 2.3 2.1 2.3.4 0 .8-.1 1.1-.3l.5.5zM16.3 50c0 1.2-.7 1.7-1.8 1.7-.5 0-1-.2-1.4-.5-.2-.3-.4-.7-.3-1.1v-2.9h.9v2.9c0 .6.4.9.8.9.6 0 .9-.3.9-.8v-2.9h.9zM18.7 48.1l.6 1.7h-1.1zm-.8 2.5h1.6l.3.9h1l-1.6-4.4h-1.1l-1.6 4.4h1zM22.5 50.7h2.2v.8h-3.1v-4.4h.9zM28.2 49.5v2h-.9v-4.4h.9v1.7h1.7v-1.7h.9v4.4h-.9v-2zM32.6 49.3c0-1.2.7-1.5 1.2-1.5s1.2.3 1.2 1.5-.7 1.5-1.2 1.5-1.2-.3-1.2-1.5m-.9 0c0 2.1 1.5 2.3 2.1 2.3s2.1-.3 2.1-2.3-1.5-2.3-2.1-2.3-2.1.2-2.1 2.3M40.3 50c0 1.2-.7 1.7-1.8 1.7-.5 0-1-.2-1.4-.5-.2-.3-.4-.7-.3-1.1v-2.9h.9v2.9c0 .6.4.9.8.9.6 0 .9-.3.9-.8v-2.9h.9zM42 50.1c0 .2.1.7.9.7.4 0 .9-.1.9-.6 0-.3-.3-.4-.8-.5l-.5-.1c-.7-.2-1.4-.3-1.4-1.3 0-.5.3-1.4 1.7-1.4s1.7.9 1.7 1.4h-.9c0-.2-.1-.7-.9-.7-.4 0-.8.1-.8.5 0 .3.3.4.5.5l1.1.3c.6.1 1.2.4 1.2 1.2 0 1.3-1.4 1.4-1.7 1.4-1.6 0-1.9-.9-1.9-1.5z" fill-rule="evenodd"/><path d="M45.5 47.1h.9v4.4h-.9z"/><g clip-rule="evenodd" fill-rule="evenodd"><path d="M50.2 47.1h.8v4.4h-.9l-1.8-3.2v3.2h-.9v-4.4h1l1.8 3.1zM54.1 49.1H56v2.4h-.6l-.1-.6c-.3.4-.8.7-1.4.7-1.1 0-2-.8-2-2.3 0-1.2.7-2.3 2.2-2.3 1.4 0 1.9.9 1.9 1.5h-1c-.1-.4-.5-.7-1-.7-.7 0-1.3.5-1.3 1.6 0 1.2.7 1.5 1.3 1.5.2 0 .9-.1 1.1-1h-1zM4.4 56c0-1.2.7-1.5 1.2-1.5s1.2.3 1.2 1.5-.7 1.5-1.2 1.5-1.2-.3-1.2-1.5m-1 0c0 2.1 1.5 2.3 2.1 2.3S7.6 58 7.6 56c0-2.1-1.5-2.3-2.1-2.3s-2.1.2-2.1 2.3M10.2 55.9v-1.3h.8c.6 0 .8.2.8.6 0 .2 0 .7-.7.7zm0 .7h1.1c.7 0 1.4-.6 1.4-1.3v-.1c0-.9-.5-1.4-1.4-1.4h-2v4.4h.9zM15.2 55.9v-1.3h.7c.6 0 .8.2.8.6 0 .2 0 .7-.7.7zm0 .7h1.1c.7 0 1.4-.6 1.4-1.3v-.1c0-.9-.5-1.4-1.4-1.4h-2v4.4h.9zM20 56c0-1.2.7-1.5 1.2-1.5s1.2.3 1.2 1.5-.7 1.5-1.2 1.5c-.5.1-1.2-.3-1.2-1.5m-.9 0c0 2.1 1.5 2.3 2.1 2.3s2.1-.3 2.1-2.3c0-2.1-1.5-2.3-2.1-2.3s-2.1.2-2.1 2.3M25.8 55.7v-1.2H27c.5 0 .6.3.6.6 0 .4-.2.6-.7.6zm-.9 2.5h.9v-1.7h1c.7 0 .7.2.7.8 0 .3 0 .6.1.9h1v-.1c-.2-.1-.2-.2-.2-.9 0-.8-.2-1-.6-1.1.4-.2.7-.6.7-1.1 0-.4-.2-1.3-1.4-1.3h-2.2zM32 58.2h-.9v-3.6h-1.3v-.8h3.6v.8H32zM38.3 56.7c0 1.2-.7 1.7-1.8 1.7-.5 0-1-.2-1.4-.5-.2-.3-.4-.7-.3-1.1v-2.9h.9v2.9c0 .6.4.9.8.9.6 0 .9-.3.9-.8V54h.9zM42.7 53.8h.9v4.4h-.9L40.9 55v3.2H40v-4.4h1l1.8 3.1z"/></g><path d="M45.3 53.8h.9v4.4h-.9z"/><path clip-rule="evenodd" d="M49.8 58.2h-.9v-3.6h-1.3v-.8h3.6v.8h-1.3v3.6zM54.6 58.2h-.9v-1.7l-1.5-2.8h1.1l.9 1.9.9-1.9h1l-1.5 2.8zM29.8 1L0 15.7v6.9h3.3v20.7H56V22.6h4v-6.9zm19.8 36H9.8V18.1l20-10.2 19.8 10.2z" fill-rule="evenodd"/><path d="M20.4 18.1h18.4v6.7H20.4zM20.4 27.7h18.4v6.7H20.4z"/></g></g></svg>