<svg xmlns="http://www.w3.org/2000/svg" viewBox="0 0 45 47.79"><defs><style>.a{fill:#1373a4}</style></defs><path class="a" d="M39 16.83c-1.36-1.08-2.8-2.06-4.26-3a1 1 0 00-1.57-.37c-3 2.56-5.64 5.55-8.81 7.91-2.25-2.45-4.15-5.24-6.62-7.47a1 1 0 00-.16-.1 1 1 0 00-1.41-.14c-1.19 1.06-2.72 1.83-3.79 3a1 1 0 00-.79 1.64c3.37 4.14 6.65 8.5 10.41 12.31a1 1 0 00.36.23.91.91 0 001.34.53 46.72 46.72 0 004.73-3.15 1.12 1.12 0 00.24-.18c3.66-2.77 7-6 10.41-9a.81.81 0 00.11-1.14.74.74 0 00-.19-1.07zM13.71 18a20.48 20.48 0 013-2.39c.27.25.52.52.78.79-1.13.67-2.06 1.66-3.17 2.37zm1.81 2.25a27.22 27.22 0 013.3-2.43l.73.86a13.73 13.73 0 00-3.11 2.71zm2.12 2.63a12.1 12.1 0 013.13-2.73c.42.51.84 1 1.27 1.51-1.16.77-2.11 1.79-3.21 2.65-.4-.5-.83-.97-1.19-1.45zm5.72 6.49v-.07c-1.13-1.14-2.21-2.35-3.27-3.57 1-.79 1.85-1.69 2.88-2.39a21.7 21.7 0 003.42 4.08q-1.5 1.01-3.03 1.93zm4.53-3.11a18.91 18.91 0 01-2.79-3.09c.71-.52 1.42-1.05 2.09-1.63a19 19 0 002.64 3.17q-.96.77-1.94 1.53zm3.39-2.77a15.35 15.35 0 01-2.66-3.24c.72-.66 1.44-1.33 2.14-2a.78.78 0 00.42.42 12.84 12.84 0 013 2.26q-1.44 1.27-2.9 2.54zm4.3-3.85A15.29 15.29 0 0032.14 17h-.08c.55-.52 1.12-1 1.69-1.53 1.24.79 2.47 1.62 3.62 2.53z"/><path class="a" d="M43.3 28.35l.06-.12A20.35 20.35 0 0031.91 1.18C24.72-1.6 15.2.72 9.52 6.27 2.81 11.06 1.48 18.8.21 26.51c-1.35 8.19 4.14 15 10.88 18.76 13.25 7.39 29.72-2.48 32.24-16.48a1 1 0 00-.03-.44zm-38-14.12a25.62 25.62 0 00-.44 2.63.81.81 0 00-.6.29c-.21.24-.4.49-.59.74a27.53 27.53 0 011.6-3.67zm-3 8.66a.83.83 0 00.7-.46c.52-.94 1-1.89 1.66-2.78a26.6 26.6 0 00.18 3.29 22.49 22.49 0 00-3 4.07 26.64 26.64 0 01.46-4.13zm-.18 7.59s.06-.06.08-.1a31.84 31.84 0 013.08-5 23.11 23.11 0 001 3.31 1 1 0 00-.5.53c-.7 1.75-1.72 3.35-2.58 5a17.1 17.1 0 01-1.09-3.74zm2 5.64a.81.81 0 00.45-.42c.84-1.7 1.82-3.32 2.62-5a19.22 19.22 0 001.11 1.91A17.55 17.55 0 007 35.37a8.15 8.15 0 01-1.44 3 18.59 18.59 0 01-1.47-2.25zm6.11 3.27c-.17.72-.34 1.43-.53 2.15-.06.22-.12.43-.19.64a18.68 18.68 0 01-2.64-2.32c1.53-1.35 1.84-3.67 2.67-5.57a16.2 16.2 0 001.54 1.59c-.38 1.12-.61 2.33-.89 3.5zm3 4.86a17.44 17.44 0 01-2.06-1 14 14 0 00.63-2.4c.3-1.24.54-2.52.89-3.76a16 16 0 002.12 1.22c-.33 1.95-.54 4.27-1.58 5.93zm3.52 1h-.31c-.46-.09-.92-.2-1.37-.32a18.32 18.32 0 001.52-5.82c.57.2 1.15.36 1.74.51-.53 1.84-.91 3.78-1.58 5.63zm5.24.16a.9.9 0 000 .13 22.41 22.41 0 01-3.3 0c.63-1.81 1-3.7 1.56-5.54a23.27 23.27 0 002.71.29 12.31 12.31 0 01-.96 5.12zm5-3.6c0 .44-.1.88-.18 1.32 0 .14-.21.69-.14.61a.85.85 0 00-.17 1.05 21.53 21.53 0 01-2.52.53 14.78 14.78 0 00.81-5 23.58 23.58 0 002.35-.2c-.03.54-.07 1.12-.14 1.69zm4.25.76a.91.91 0 000 .28 20.86 20.86 0 01-2.72 1.29 9.45 9.45 0 00.25-1.38c.13-1 .2-2 .3-3a22.08 22.08 0 002.64-.76 26.08 26.08 0 01-.45 3.57zm3.9-2.57a20.71 20.71 0 01-1.8 1.48 26.59 26.59 0 00.32-3.29q.87-.41 1.71-.9a15.71 15.71 0 00-.37 2.29.91.91 0 00.14.42zm2-2.13a19.75 19.75 0 00.29-2 18.9 18.9 0 002.23-2 20.56 20.56 0 01-2.5 4.01zm-14.42.63C8.87 38.35 3.94 22.24 8.07 11.35a.87.87 0 000-.26.94.94 0 00.12-.14 18.65 18.65 0 012-2.85c.35-.27.7-.53 1.06-.76a.88.88 0 00.43-.78C23.61-4.32 46.6 6 42.95 23.88 41 33.53 31.92 38.62 22.74 38.51z"/></svg>