<svg xmlns="http://www.w3.org/2000/svg" class="icon-checkmark" viewBox="0 0 28.39 30"><path d="M28 2.25a.6.6 0 00-.11-.69C26.11-.36 23.35-.18 21 .38a.56.56 0 00-.44.64c-4.79 5.35-8 11.76-11.91 17.72-1.45-2.54-2-5.48-3.65-7.94a.61.61 0 00-.35-.25.61.61 0 00-.37 0c-1.28.27-2.52.74-3.8 1a.55.55 0 00-.43.71.62.62 0 000 .32c.37 1.53.82 3 1.29 4.56a.54.54 0 00.07.23A52.55 52.55 0 014 28.86a.63.63 0 00.54.59.58.58 0 00.6.55c1.26 0 2.52-.18 3.78-.23h.53a.63.63 0 00.53-1c2.87-3.69 5.38-7.65 8-11.54 1.4-2.1 2.91-4.12 4.44-6.14l.05-.07c1.15-1.52 2.31-3 3.44-4.59a.62.62 0 00.43-.59C27 5 27.66 4 28.28 3.09a.56.56 0 00-.28-.84zM1.34 12.62c.93-.24 1.85-.53 2.78-.76l.08.14a9.94 9.94 0 00-2.59 1.64c-.09-.35-.18-.64-.27-1.02zM2 14.9a.61.61 0 00.3-.16 8.65 8.65 0 012.5-1.63c.13.27.25.53.37.8a20.87 20.87 0 00-2 1.23 8.55 8.55 0 00-1 .69zm.68 2.3A5.19 5.19 0 014 16.11a17.1 17.1 0 011.62-1l.46 1.17a13.14 13.14 0 00-2 1 6.93 6.93 0 00-1.19.72zm.68 2.25a.59.59 0 00.09-.11 3.64 3.64 0 011.44-1.13 10.25 10.25 0 011.72-.81q.2.46.41.92a11.94 11.94 0 00-3.41 2zm1 3.82q-.19-.79-.41-1.57a9.53 9.53 0 013.6-2.26c.11.2.22.4.35.59a14.72 14.72 0 01-1.8 1.84c-.57.47-1.18.9-1.73 1.4zm4.29 5.25c-1.12.06-2.23.2-3.36.21-.08-1-.22-2-.39-2.91 1.33.66 2.88 1.12 3.79 2.35a.68.68 0 00.13.12zm.94-1.22c-1.13-1.37-2.75-1.89-4.3-2.7a.6.6 0 00-.41-.06 12.52 12.52 0 011.54-1.33.58.58 0 00.41.16c.6 0 1.21.7 1.61 1.08.64.6 1.27 1.22 1.91 1.82zm1.51-2.06c-.69-.65-1.36-1.31-2.05-2a5 5 0 00-1.49-1c.47-.45.9-.92 1.32-1.41.53.38 1.07.74 1.57 1.16a13.93 13.93 0 011.62 1.83zm1.7-2.5a15.38 15.38 0 00-1.46-1.64 21.37 21.37 0 00-1.8-1.33.67.67 0 000-.09l.53-.81h.11a5.5 5.5 0 012 .69c.47.23 1.47.66 1.58 1.25a.59.59 0 00.12.26zm1.91-2.88A5 5 0 0013 18.58a8.26 8.26 0 00-2.21-.87l.44-.7h.1a10 10 0 014.46 1.17zm1.81-2.71A10.88 10.88 0 0012 15.83l.71-1.16a.63.63 0 00.27 0 10.73 10.73 0 012.61.22 5 5 0 012 .69zm2-2.8l-.18.25a5 5 0 00-1.86-.73 13.4 13.4 0 00-3-.41l.72-1.19a.61.61 0 00.21 0 9.35 9.35 0 014.82 1.15zm1.42-1.9l-.06-.05a10.13 10.13 0 00-5-1.34l.84-1.34a.61.61 0 00.36 0c1.63-.37 3.28.75 4.91 1.27zm1.87-2.5c-1.81-.28-3.43-1.54-5.28-1.51.25-.39.51-.77.77-1.15a.66.66 0 00.26 0 7.35 7.35 0 013 .42 22.73 22.73 0 012.44.7zm1.87-2.51a.64.64 0 00-.28-.22A15 15 0 0018.17 6c.2-.29.42-.57.63-.85a40.51 40.51 0 015.76 1zm1.71-2.36A34.89 34.89 0 0019.68 4l.65-.81a.57.57 0 00.14 0 26.25 26.25 0 015.75.62c-.28.45-.56.87-.85 1.27zM27 2.71A31.56 31.56 0 0021.38 2c.14-.16.27-.33.42-.48 1.81-.38 3.87-.49 5.23 1a.58.58 0 00.1.07z" fill="#1a1a1a"/></svg>