<svg xmlns="http://www.w3.org/2000/svg" viewBox="0 0 388.01 71.57"><defs><style>.logo-cls-1{fill:#6ba43a}.logo-cls-2{fill:#0083ad}.logo-cls-3{fill:#6e7c7c}</style></defs><g data-name="Layer 2"><g data-name="Layer 1"><path class="logo-cls-1" d="M171.03 14.65h18.01v-3.68h-21.69v33.64h3.68V29.67h15.02v-3.72h-15.02v-11.3zm71.76 8.23a12.3 12.3 0 00-10.11-5.15 13.82 13.82 0 100 27.63 12.38 12.38 0 0010.11-5.16v4.41h3.73V11h-3.73zm0 8.64a10.13 10.13 0 11-10.11-10.11 10.11 10.11 0 0110.11 10.11zm82-20.55h3.72v33.64h-3.72z"/><path class="logo-cls-2" d="M24.9 10.97h-5.19L3.72 26.95V10.97H0v33.64h3.72V28.62l15.99 15.99h5.19L8.13 27.79 24.9 10.97zm83.29 0h3.72v33.64h-3.72z"/><path class="logo-cls-1" d="M290.87 17.73a7.87 7.87 0 00-6.42 3.27v-2.52h-3.73v26.13h3.73V27.83a6.41 6.41 0 0110.05-5.29l.54.36v-4.24l-.21-.09a9.85 9.85 0 00-3.96-.84z"/><path class="logo-cls-2" d="M157 17.73a7.87 7.87 0 00-6.42 3.27v-2.52h-3.73v26.13h3.73V27.83a6.41 6.41 0 0110-5.29l.54.36v-4.24l-.21-.09a9.82 9.82 0 00-3.91-.84z"/><path class="logo-cls-1" d="M309.06 17.69a18.42 18.42 0 00-8.64 2l-.18.1v4.47l.57-.45a13.46 13.46 0 018.25-2.39c4.14 0 7.51 1.94 7.51 4.31v4.11a11.67 11.67 0 00-8.26-3.13c-8.84 0-12 4.8-12 9.3s3.15 9.36 12 9.36a11.44 11.44 0 008.26-3.48v2.73h3.64v-18.9c0-4.43-5-8.03-11.15-8.03zM316.57 36c0 3.11-3.71 5.63-8.26 5.63-5.41 0-8.27-1.94-8.27-5.63s2.86-5.62 8.27-5.62c4.55 0 8.26 2.52 8.26 5.62z"/><path class="logo-cls-2" d="M97 29.38l-5.7-.79c-2.42-.41-3.78-1.61-3.65-3.21.16-1.91 2.52-4 6-4a17.33 17.33 0 018 1.9l.52.29v-4.02l-.2-.09a20.3 20.3 0 00-8.34-1.77c-5.36 0-9.74 3.23-10 7.36s2.22 6.59 7.07 7.21l5 .66c3 .5 4.88 2.19 4.71 4.29s-2.58 4.42-6.8 4.42a16.59 16.59 0 01-8.2-2.2l-.52-.3v4.31l.2.1a20.63 20.63 0 008.52 1.82c5 0 10.2-2.48 10.71-8 .55-4.73-3.42-7.45-7.32-7.98zm291 10.96V11.8h-.4a15.72 15.72 0 00-3.45.56l-.83.28a5.93 5.93 0 00-.83.32 13.9 13.9 0 00-1.6.78 15.69 15.69 0 00-5.31 4.85 16.66 16.66 0 00-2.66 6.92 17 17 0 004.8 14.25 18.45 18.45 0 006.82 4.24c.28.1.57.18.85.27a4.32 4.32 0 002.62-4"/><path class="logo-cls-1" d="M376.49 41.14a19.53 19.53 0 01-5.43-7 19.31 19.31 0 01-.84-2.11 10.4 10.4 0 01-.31-1.09c-.09-.37-.2-.74-.28-1.11a20.53 20.53 0 018.26-20.73 20 20 0 014.39-2.44 25.35 25.35 0 00-5 1.73 24.66 24.66 0 00-7.53 5.55 24.23 24.23 0 00-4.75 7.81 23.55 23.55 0 00-1.51 8.88 20.61 20.61 0 00.5 4.43 22.68 22.68 0 001.34 4.21 23.24 23.24 0 003.27 5.38h14.71a19.68 19.68 0 01-6.78-3.51m-17.3.36A28.6 28.6 0 01358 36a27.22 27.22 0 01-.11-5.56 31.26 31.26 0 01.41-3.19 52.89 52.89 0 01-3.84 7.35 73.57 73.57 0 01-7.46 9.98 4.27 4.27 0 00.71.07h12.79a28.13 28.13 0 01-1.23-3.15"/><path class="logo-cls-3" d="M361.43 3.2a43.54 43.54 0 01-.55 16.23c0 .13-.07.26-.1.39a28.22 28.22 0 016.42-8.51 27.64 27.64 0 0119.34-7.14c.49 0 1 0 1.47.08A4.32 4.32 0 00383.7 0h-22.88c.24 1.06.45 2.12.61 3.2"/><path class="logo-cls-2" d="M349.94 31.46a45.06 45.06 0 007.39-13 40.55 40.55 0 002.26-15c0-1.12-.12-2.25-.24-3.37h-11.68a4.32 4.32 0 00-4.31 4.31v34.09a64.28 64.28 0 006.58-7"/><path class="logo-cls-3" d="M183.35 58a6 6 0 013.59 1.31l.36.24-.05-2.68-.12-.06a8.52 8.52 0 00-3.88-1 7.38 7.38 0 00-5.37 2.16 7.84 7.84 0 00-2.35 5.53 7.35 7.35 0 007.52 7.72h.08a8.65 8.65 0 004.05-1.05l.09-.07v-2.86l-.36.29a5.72 5.72 0 01-3.69 1.39 5.14 5.14 0 01-5.3-5.43 5.23 5.23 0 011.46-3.83 5.58 5.58 0 013.97-1.66zm16.93 2.08c-.08-2.76-1.88-4.15-5.33-4.15h-3.4v14.9H194v-6.19h.29l4.38 6.1.07.09h2.92L197 64.42a4.38 4.38 0 003.28-4.34zm-6.25-2h.78c2 0 3 .67 3 2.12a1.93 1.93 0 01-.54 1.47 3.81 3.81 0 01-2.71 1H194zm11.46 12.75h8.04v-2.37h-5.71v-4.78h5.63v-2.14h-5.63v-3.26h5.71v-2.35h-8.09l.05 14.9zm16.16-14.9h-3.73v14.9h3.73a7.64 7.64 0 007.93-7.41 7.34 7.34 0 00-2-5.36 8.2 8.2 0 00-5.93-2.13zm-1.32 2.21h1.13c3.62 0 5.75 1.91 5.83 5.19a4.91 4.91 0 01-1.36 3.67 5.93 5.93 0 01-4.24 1.67h-1.36zm13.22-2.21h2.41v14.9h-2.41zm6.4 2.35h3.34v12.55h2.51V58.28h3.29l.03-2.35h-9.17v2.35zm26.19 6.66a4.24 4.24 0 01-.94 3.13 2.9 2.9 0 01-2.16.74H263c-2.09 0-3.1-1.18-3.1-3.48v-9.4h-2.37v9.84a5.26 5.26 0 005.56 5.35 5.25 5.25 0 005.41-5.33v-9.86h-2.35zm17.31.88l-10.88-10.68v15.69H275V60.81l10.86 10.76V55.93h-2.41v9.89zm6.49-9.89h2.41v14.9h-2.41zm13.95-.22c-4.81 0-8 3.25-8 8.09a7.61 7.61 0 007.82 7.38 7.74 7.74 0 00.21-15.47zm-.23 2.3a5.44 5.44 0 11-5.51 5.47 5.49 5.49 0 015.51-5.48zm22.44-2.17v9.89l-10.87-10.68v15.7h2.43V60.72l10.85 10.76V55.84h-2.41z"/><path class="logo-cls-2" d="M36.31 17.73a13.82 13.82 0 000 27.63 13.65 13.65 0 0010.51-5l-2.23-3.2a9.87 9.87 0 01-8.28 4.45 10 10 0 01-9.87-8.27h23.47l.05-.28a9 9 0 00.14-1.56 13.81 13.81 0 00-13.79-13.77zm-9.87 12a10.07 10.07 0 0119.79 0zm40.23-12a13.82 13.82 0 1010.51 22.65L75 37.18a9.89 9.89 0 01-8.28 4.45 10 10 0 01-9.87-8.27h23.42v-.28a9 9 0 00.14-1.56 13.81 13.81 0 00-13.74-13.79zm-9.87 12a10.06 10.06 0 0119.78 0zm72.57-12.02a13.81 13.81 0 000 27.62 13.64 13.64 0 0010.52-5l-2.24-3.19a9.86 9.86 0 01-8.28 4.45 10 10 0 01-9.87-8.27H143l.05-.28a9 9 0 00.14-1.56 13.81 13.81 0 00-13.82-13.77zm-9.87 12a10.06 10.06 0 0119.79 0z"/><path class="logo-cls-1" d="M202.24 17.71a13.81 13.81 0 1010.52 22.64l-2.24-3.19a9.86 9.86 0 01-8.28 4.45 10 10 0 01-9.87-8.27h23.48l.05-.28a9 9 0 00.1-1.56 13.8 13.8 0 00-13.76-13.79zm-9.87 12a10.06 10.06 0 0119.79 0zm70.92-11.98a13.82 13.82 0 1010.51 22.65l-2.23-3.2a9.89 9.89 0 01-8.28 4.45 10 10 0 01-9.87-8.27h23.47l.05-.28a9 9 0 00.14-1.56 13.81 13.81 0 00-13.79-13.79zm-9.87 12a10.06 10.06 0 0119.78 0z"/></g></g></svg>