<svg viewBox="0 0 128 60" width="128" height="60" xmlns="http://www.w3.org/2000/svg"><g fill="#fff"><path d="M127.95 59.71H0V0h127.95zM5.42 5.45V54.5h117.32V5.45z"/><path d="M122.15 53.91H6.01V6.04h116.14zM65.86 22.12v12.63c-.02 1.23.17 2.45.56 3.61.34.97.93 1.84 1.7 2.53 1.5 1.32 3.65 1.99 6.38 1.99s4.84-.67 6.37-2c.78-.69 1.37-1.56 1.73-2.53.41-1.15.6-2.37.58-3.59V22.13h-4.47v12.63c0 1.51-.31 2.63-.91 3.34s-1.71 1.07-3.3 1.07c-.74.03-1.49-.1-2.18-.38a3.15 3.15 0 01-1.86-2.4c-.1-.54-.14-1.08-.14-1.62V22.15h-4.46zm-11.89-.48c-1.44-.02-2.87.26-4.19.82-1.2.52-2.27 1.3-3.14 2.27-.87.99-1.53 2.15-1.96 3.4-.46 1.36-.69 2.79-.68 4.22-.01 1.41.22 2.81.68 4.14.43 1.23 1.1 2.37 1.96 3.34.87.96 1.95 1.72 3.14 2.23 1.33.56 2.75.83 4.19.81 1.17.01 2.34-.18 3.44-.57a7.96 7.96 0 002.73-1.65c.79-.74 1.43-1.63 1.88-2.62.49-1.09.79-2.25.88-3.44h-4.32c-.11 1.22-.6 2.37-1.41 3.3-.76.83-1.84 1.25-3.2 1.25-.89.03-1.77-.17-2.56-.58a4.77 4.77 0 01-1.7-1.55c-.44-.66-.77-1.4-.95-2.18-.2-.81-.3-1.65-.3-2.49 0-.87.1-1.74.3-2.59.18-.79.5-1.55.95-2.23.43-.65 1.02-1.19 1.7-1.56.79-.41 1.67-.61 2.56-.58 1.06 0 2.1.36 2.93 1.02.39.32.73.7.99 1.12.26.43.44.91.51 1.41h4.32c-.11-1.1-.44-2.16-.97-3.13a7.65 7.65 0 00-1.95-2.29c-.8-.62-1.71-1.1-2.67-1.41a9.992 9.992 0 00-3.17-.48zm-30.17.48v20.3h4.18V28.83h.05l8.44 13.59h4.47V22.11h-4.18v13.62h-.06l-8.47-13.62h-4.44zM90.96 37.9h7.59l1.54 4.52h4.63l-7.59-20.3h-4.58l-7.68 20.3h4.49l1.59-4.52zM30.12 15.53v.39h.21c.1 0 .2 0 .3-.03a.36.36 0 00.2-.11c.06-.07.11-.15.15-.24.05-.13.1-.27.13-.41l.49-1.9h-.52l-.27 1.41-.3-1.41h-.55l.57 2.04c0 .07-.03.14-.08.2s-.13.08-.21.08c-.05 0-.09 0-.14-.01zm73.15-2.36h-.03c-.13 0-.26.02-.38.07-.1.04-.18.12-.25.2-.07.1-.11.22-.14.34-.03.15-.04.31-.04.46 0 .16.01.31.04.47.02.12.06.23.13.34.06.09.15.16.25.2.12.04.25.06.37.06h.02c.13 0 .26-.02.38-.06.1-.04.19-.11.25-.2.07-.1.11-.22.14-.34.03-.15.04-.31.04-.46 0-.16-.01-.31-.04-.47a.888.888 0 00-.13-.34.546.546 0 00-.25-.2.91.91 0 00-.36-.06zm-33.39 0h-.03c-.13 0-.26.02-.38.07-.1.05-.18.12-.25.2-.07.1-.12.22-.14.34-.03.15-.04.31-.04.46 0 .16.01.31.04.47.02.12.06.23.13.34.06.09.15.16.25.2.12.04.25.06.37.06h.02c.13 0 .26-.02.38-.06.1-.04.19-.11.25-.2.07-.1.11-.22.14-.34.03-.15.04-.31.04-.46 0-.16-.01-.31-.04-.47a.888.888 0 00-.13-.34.546.546 0 00-.25-.2.91.91 0 00-.36-.06zm44.88 0c-.15 0-.29.02-.43.09-.1.05-.19.13-.24.23-.06.1-.1.22-.11.34-.02.13-.03.26-.03.39 0 .14 0 .27.02.39 0 .12.04.24.09.35.05.1.13.19.23.25.14.07.29.1.44.1.2.02.4-.05.55-.19a.81.81 0 00.19-.54H115c0 .1-.03.2-.08.29-.04.06-.12.1-.19.09-.04 0-.09-.01-.12-.04s-.06-.06-.08-.11-.04-.1-.04-.15c0-.06-.01-.12-.01-.18v-.16h1.04v-.11c0-.14 0-.29-.03-.43-.02-.12-.06-.23-.11-.33a.659.659 0 00-.23-.21.986.986 0 00-.37-.08zm-7.94 0a.86.86 0 00-.42.09c-.1.05-.19.13-.25.23s-.1.22-.11.34c-.02.13-.03.26-.03.39s0 .25.02.39c0 .12.04.24.09.35.05.1.13.19.23.25.14.07.29.1.44.1.2.02.4-.05.55-.19a.81.81 0 00.19-.54h-.47c0 .1-.03.2-.08.29-.04.06-.12.1-.19.09-.04 0-.09-.01-.12-.04s-.06-.06-.08-.11-.04-.1-.04-.15c0-.06-.01-.12-.01-.18v-.16h1.04v-.11c0-.14 0-.29-.03-.43-.02-.12-.06-.23-.11-.33a.659.659 0 00-.23-.21.986.986 0 00-.37-.08zm-5.56-.67a.9.9 0 00-.43.09c-.12.06-.21.15-.28.26-.08.13-.13.28-.15.43-.03.2-.05.4-.04.6 0 .21 0 .41.03.62.01.16.05.31.12.45.05.11.14.21.25.27.13.06.27.09.41.09.11 0 .23-.02.33-.07s.18-.13.24-.23v.25h.4V13.8h-.88v.4h.36v.27c0 .07-.01.13-.03.19a.42.42 0 01-.2.22c-.03.02-.07.02-.11.03-.07 0-.14-.02-.19-.07a.53.53 0 01-.11-.21c-.03-.11-.05-.22-.06-.34 0-.14-.01-.29-.01-.44-.01-.25.02-.49.09-.73.04-.13.15-.22.28-.22.05 0 .1.01.14.04s.07.07.1.11c.03.05.04.09.06.15.01.05.02.1.02.16h.52a.925.925 0 00-.2-.64.84.84 0 00-.64-.22zm-3.65 2.09v.07c0 .09.01.18.04.27.02.08.06.15.12.2.07.06.15.1.23.12.12.03.24.04.37.04.1 0 .21-.01.31-.03.09-.02.17-.06.24-.11s.12-.12.16-.2c.04-.09.06-.18.06-.28 0-.13-.03-.26-.1-.37a.68.68 0 00-.35-.22l-.32-.11a.4.4 0 01-.18-.1.239.239 0 01-.05-.14c0-.06.02-.13.07-.16.05-.04.11-.06.17-.05.07 0 .14.02.18.08.04.07.06.15.05.23h.47v-.08c0-.16-.05-.32-.17-.43a.77.77 0 00-.53-.15c-.12 0-.23.01-.34.05-.09.03-.17.07-.23.13-.06.05-.1.12-.13.19-.03.08-.04.16-.04.24 0 .13.03.25.11.35.09.1.2.18.33.22l.37.13s.09.05.13.08c.04.04.06.09.06.15 0 .07-.02.13-.07.18-.06.04-.12.07-.19.06a.28.28 0 01-.2-.08.332.332 0 01-.07-.21v-.07h-.47zm-.97-1.43a.86.86 0 00-.42.09c-.1.05-.19.13-.25.23s-.1.22-.11.34c-.02.13-.03.26-.03.39 0 .12 0 .25.02.39 0 .12.04.24.09.35.05.1.13.19.23.25.14.07.29.1.44.1.2.02.4-.05.55-.19a.81.81 0 00.19-.54h-.47c0 .1-.03.2-.08.29-.04.06-.12.1-.19.09-.04 0-.09-.01-.12-.04s-.06-.06-.08-.11-.04-.1-.04-.15c0-.06-.01-.12-.01-.18v-.16h1.04v-.11c0-.14 0-.29-.03-.43-.02-.12-.06-.23-.11-.33a.583.583 0 00-.23-.21.995.995 0 00-.38-.08zm-3.05.36c.07 0 .14.02.19.07.04.05.06.12.06.18s-.01.11-.05.15c-.05.04-.1.07-.17.08l-.3.08c-.08.02-.16.05-.23.09-.06.03-.12.07-.16.12s-.07.11-.09.18c-.02.08-.03.16-.03.25 0 .07 0 .14.03.21.02.07.05.13.08.19.04.06.09.1.15.13.07.03.15.05.23.05.11 0 .21-.01.31-.05.09-.04.17-.12.21-.21s.02.07.02.11.02.07.04.1h.5a.845.845 0 01-.06-.39v-1.07c0-.08 0-.17-.03-.25a.564.564 0 00-.11-.2.496.496 0 00-.22-.13c-.12-.03-.25-.05-.38-.05-.09 0-.19.01-.28.03-.08.02-.16.06-.23.11s-.12.12-.15.19c-.04.09-.06.2-.06.3v.05h.47v-.06c0-.07.02-.14.06-.19.05-.05.11-.08.18-.07zm-3.97.89v.11c-.01.21.06.42.2.58.18.15.42.22.66.2.25.01.49-.05.69-.2.18-.16.27-.39.25-.62 0-.08 0-.15-.02-.23-.01-.07-.04-.13-.08-.19s-.1-.12-.16-.16c-.08-.06-.16-.1-.25-.14l-.42-.18a.46.46 0 01-.23-.16.487.487 0 01-.05-.33c.02-.08.07-.14.15-.17.05-.02.1-.03.15-.03.09 0 .18.03.23.11.05.09.07.19.07.3h.52v-.08a.92.92 0 00-.06-.33.658.658 0 00-.17-.23.707.707 0 00-.26-.13c-.11-.03-.22-.04-.34-.04a.898.898 0 00-.61.2c-.16.16-.24.38-.22.6 0 .1.01.2.04.3a.723.723 0 00.35.39c.1.05.21.1.31.13.08.03.15.06.23.09.05.02.11.06.15.1a.2.2 0 01.08.12c.02.05.03.1.02.16 0 .09-.03.19-.1.25-.06.05-.14.08-.23.08-.06 0-.12 0-.18-.03a.444.444 0 01-.11-.08.31.31 0 01-.06-.13c-.01-.06-.02-.12-.02-.17v-.08h-.55zm-2.21-1.25a.516.516 0 00-.47.25c-.12.26-.17.54-.15.82-.02.28.03.56.15.82.1.16.28.26.47.25.09 0 .18-.02.27-.06.08-.05.15-.12.2-.2v.22h.5v-2.71h-.52v.86c-.05-.07-.11-.14-.19-.18s-.16-.06-.25-.06zm-1.64 0a.86.86 0 00-.42.09c-.1.05-.19.13-.24.23-.06.1-.1.22-.11.34-.02.13-.03.26-.03.39s0 .26.02.39c0 .12.04.24.09.35.05.1.13.19.24.25.14.07.29.1.44.1.2.02.4-.05.55-.19a.81.81 0 00.19-.54h-.47c0 .1-.04.2-.08.29-.04.06-.12.1-.19.09-.04 0-.09-.01-.12-.04s-.06-.06-.08-.11-.04-.1-.04-.15c0-.06-.01-.12-.01-.18v-.16h1.03v-.11c0-.14 0-.29-.03-.43a.92.92 0 00-.11-.33.659.659 0 00-.23-.21.995.995 0 00-.38-.08zm-6.87-.61v1.89c0 .15.02.3.07.44.04.1.11.19.19.26.08.06.18.1.27.12a1.733 1.733 0 00.64 0c.1-.02.2-.07.28-.13a.58.58 0 00.19-.27c.05-.14.08-.28.07-.43v-1.89h-.55v1.89c0 .06 0 .13-.01.19 0 .05-.02.1-.05.15-.02.04-.06.07-.1.1a.36.36 0 01-.32 0 .241.241 0 01-.1-.1c-.02-.05-.04-.1-.05-.15 0-.06-.01-.13-.01-.19v-1.89h-.55zm-1.99.61c-.15 0-.29.02-.43.09-.1.05-.19.13-.24.23-.06.1-.1.22-.11.34-.02.13-.03.26-.03.39 0 .14 0 .26.02.39 0 .12.04.24.09.35.05.1.13.19.23.25.14.07.29.1.44.1.2.02.4-.05.55-.19a.81.81 0 00.19-.54h-.47c0 .1-.03.2-.08.29-.04.06-.12.1-.19.09-.04 0-.09-.01-.12-.04s-.06-.06-.08-.11-.04-.1-.04-.15c0-.06-.01-.12-.01-.18v-.16h1.04v-.11c0-.14 0-.29-.03-.43-.02-.12-.06-.23-.11-.33a.583.583 0 00-.23-.21.946.946 0 00-.37-.08zm-12.21 0a.516.516 0 00-.47.25c-.12.26-.17.54-.15.82-.02.28.03.56.15.82.1.16.28.26.47.25.09 0 .18-.02.27-.06a.52.52 0 00.19-.2v.22h.5v-2.71h-.52v.86c-.05-.07-.11-.14-.19-.18s-.17-.06-.25-.06zm-1.63 0c-.15 0-.29.02-.43.09-.1.05-.19.13-.24.23-.06.1-.1.22-.11.34-.02.13-.03.26-.03.39 0 .14 0 .27.02.39 0 .12.04.24.09.35.05.1.13.19.23.25.14.07.29.1.44.1.2.02.4-.05.55-.19a.81.81 0 00.19-.54h-.47c0 .1-.03.2-.08.29-.04.06-.12.1-.19.09-.04 0-.09-.01-.12-.04s-.06-.06-.08-.11-.04-.1-.04-.15c0-.06-.01-.12-.01-.18v-.16h1.04v-.11c0-.14 0-.29-.03-.43a.92.92 0 00-.11-.33.659.659 0 00-.23-.21.946.946 0 00-.37-.08zm-3.08 0c-.11 0-.23.02-.33.05s-.19.09-.26.17c-.08.1-.14.21-.17.33-.04.17-.07.35-.06.52 0 .17.01.35.05.51.02.12.07.23.15.33.06.08.15.14.24.17.11.03.23.05.34.05.22.02.44-.06.6-.21.13-.18.2-.39.18-.61h-.5c0 .12-.01.25-.06.36-.04.07-.11.12-.19.11-.05 0-.1-.01-.14-.04s-.07-.08-.09-.13a.85.85 0 01-.04-.22c0-.09-.01-.2-.01-.32 0-.11 0-.22.01-.31 0-.07.02-.15.04-.22.02-.05.05-.1.09-.13.05-.03.1-.05.15-.04.04 0 .09.01.12.04s.05.06.07.09c.02.04.03.09.03.13v.15h.5a.83.83 0 00-.19-.58.663.663 0 00-.55-.21zm-3.05 0a.516.516 0 00-.47.25c-.12.26-.17.54-.15.82-.02.28.03.56.15.82.1.16.28.26.47.25.09 0 .18-.02.27-.06.08-.05.15-.12.2-.2v.22h.5v-2.71h-.52v.86c-.05-.07-.11-.14-.19-.18s-.16-.06-.25-.06zm-3.66.36c.07 0 .14.02.19.07.04.05.06.12.05.18 0 .06-.01.11-.05.15-.05.04-.1.07-.17.08l-.3.08c-.08.02-.16.05-.23.09-.06.03-.12.07-.16.12s-.07.11-.09.18c-.02.08-.03.16-.03.25 0 .07 0 .14.03.21.02.07.05.13.08.19.04.06.09.1.15.13.07.03.15.05.23.05.11 0 .21-.01.31-.05.09-.04.17-.12.21-.21v.02s.02.06.02.09c0 .04.02.07.04.1h.5a.845.845 0 01-.06-.39v-1.07c0-.08 0-.17-.03-.25a.564.564 0 00-.11-.2.496.496 0 00-.22-.13c-.12-.03-.25-.05-.38-.05-.09 0-.19.01-.28.03-.08.02-.16.06-.23.11s-.12.12-.15.19c-.04.09-.06.2-.06.3v.05h.47v-.06c0-.07.02-.14.06-.19.05-.05.11-.08.18-.07zm-6.85 0c.07 0 .14.02.19.07.04.05.06.12.05.18 0 .06-.01.11-.04.15-.04.04-.1.07-.16.08l-.3.08c-.08.02-.16.05-.23.09-.06.03-.12.07-.16.12s-.07.11-.09.18c-.02.08-.03.16-.03.25 0 .07 0 .14.03.21.02.07.05.13.08.19.04.06.09.1.15.13.07.03.15.05.23.05.11 0 .21-.01.31-.05.09-.04.17-.12.21-.21s0 .03 0 .04c0 .02 0 .04.01.07 0 .04.02.07.04.1h.5a.845.845 0 01-.05-.17c-.01-.07-.01-.15-.01-.22v-1.07c0-.08 0-.17-.03-.25a.564.564 0 00-.11-.2.496.496 0 00-.22-.13c-.12-.03-.25-.05-.38-.05-.09 0-.19.01-.28.03-.08.02-.16.06-.23.11s-.12.12-.15.19c-.04.09-.06.2-.06.3v.05h.47v-.06c0-.07.02-.14.06-.19.05-.05.11-.08.18-.07zm-6.65-.3v1.51c-.02.16.03.32.13.44.11.09.24.14.38.13.1 0 .21-.02.3-.06.09-.05.17-.12.22-.22v.24h.5v-2.04h-.52v1.35c0 .23-.09.34-.28.34-.06 0-.13-.02-.17-.06a.342.342 0 01-.05-.22v-1.41h-.52zm-3.17-.05a.86.86 0 00-.42.09c-.1.05-.19.13-.24.23-.06.1-.1.22-.11.34-.02.13-.03.26-.03.39 0 .12 0 .24.02.39.01.12.04.24.09.35.05.1.13.19.23.25.14.07.29.1.44.1.2.02.4-.05.55-.19a.81.81 0 00.19-.54h-.47c0 .1-.04.2-.08.29-.04.06-.12.1-.19.09-.04 0-.09-.01-.12-.04s-.06-.07-.08-.11c-.02-.05-.04-.1-.04-.15 0-.06-.01-.12-.01-.18v-.16h1.03v-.11c0-.14 0-.29-.03-.43a.92.92 0 00-.11-.33.659.659 0 00-.23-.21.946.946 0 00-.37-.08zm-7.93 1.88c.05.08.11.15.19.2.08.04.18.06.27.06.19.01.37-.08.47-.25.12-.25.17-.54.15-.82.02-.28-.03-.56-.15-.82a.507.507 0 00-.47-.25c-.09 0-.18.02-.25.06-.07.05-.14.11-.19.18v-.86h-.52v2.71h.5v-.22zm-2.8-1.87a.516.516 0 00-.47.25c-.12.26-.17.54-.15.82-.02.28.03.56.15.82.1.16.28.26.47.25.09 0 .18-.02.27-.06.08-.05.15-.12.2-.2v.22h.5v-2.71h-.52v.86c-.05-.07-.11-.14-.19-.18s-.16-.06-.25-.06zm-1.64 0a.86.86 0 00-.42.09c-.1.05-.19.13-.24.23-.06.1-.1.22-.11.34-.02.13-.03.26-.03.39s0 .26.02.39c0 .12.04.24.09.35.05.1.13.19.24.25.14.07.29.1.44.1.2.02.4-.05.55-.19a.81.81 0 00.19-.54h-.47c0 .1-.03.2-.08.29-.04.06-.12.1-.19.09-.04 0-.09-.01-.12-.04s-.06-.06-.08-.11-.04-.1-.04-.15c0-.06-.01-.12-.01-.18v-.16h1.03v-.11c0-.14 0-.29-.03-.43a.92.92 0 00-.11-.33.659.659 0 00-.23-.21.986.986 0 00-.37-.08zm-3.71 0c-.11 0-.23.02-.33.05s-.19.09-.26.17c-.08.1-.14.21-.17.33-.04.17-.06.35-.06.52s.01.35.05.51c.02.12.07.23.15.33.06.08.15.14.24.17.11.03.23.05.34.05.22.02.44-.06.6-.21.13-.18.2-.39.18-.61h-.5c0 .12-.01.25-.06.36-.04.07-.11.12-.19.11-.05 0-.1-.01-.14-.04s-.07-.08-.09-.13a.85.85 0 01-.04-.22c0-.09-.01-.2-.01-.32 0-.11 0-.22.01-.31 0-.07.02-.15.04-.22.02-.05.05-.1.09-.13.05-.03.1-.05.15-.04.04 0 .09.01.12.04.03.02.05.06.07.09.02.04.03.09.03.13v.15h.5a.872.872 0 00-.18-.58.663.663 0 00-.55-.21zm-1.9.36c.07 0 .14.02.19.07.04.05.06.12.05.18 0 .06-.01.11-.05.15s-.1.07-.16.08l-.3.08c-.08.02-.16.05-.23.09-.06.03-.12.07-.16.12s-.08.11-.09.18c-.02.08-.03.16-.03.25 0 .07 0 .14.03.21.02.07.04.13.08.19s.09.1.15.13c.07.03.15.05.23.05.11 0 .21-.01.31-.05.09-.04.17-.12.21-.21s0 .03 0 .04c0 .02 0 .04.01.07 0 .04.02.07.04.1h.5a.845.845 0 01-.05-.17c-.01-.07-.01-.15-.01-.22v-1.07c0-.08 0-.17-.03-.25-.02-.07-.05-.14-.11-.2s-.14-.11-.22-.13c-.12-.03-.25-.05-.38-.05-.09 0-.19.01-.28.03-.08.02-.16.05-.23.11-.07.05-.12.12-.15.19-.04.09-.06.2-.06.3v.05h.47v-.06c0-.07.02-.14.06-.19.05-.05.11-.08.18-.07zm-2.14 1.52c.05.08.11.15.2.2.08.04.18.06.27.06.19.01.37-.08.47-.25.12-.25.17-.54.15-.82.02-.28-.03-.56-.15-.82a.507.507 0 00-.47-.25c-.09 0-.18.02-.25.06-.07.05-.14.11-.19.18v-.86H16v2.71h.5v-.22zm-2.8-1.87a.516.516 0 00-.47.25c-.12.26-.17.54-.15.82-.02.28.03.56.15.82.1.16.28.26.47.25.09 0 .18-.02.27-.06.08-.05.15-.12.2-.2v.22h.5v-2.71h-.52v.86c-.05-.07-.11-.14-.19-.18s-.16-.06-.25-.06zm-3.66.36c.07 0 .14.02.19.07.04.05.06.12.05.18 0 .06-.01.11-.05.15s-.1.07-.16.08l-.3.08c-.08.02-.16.05-.23.09-.06.03-.12.07-.16.12s-.07.11-.09.18c-.02.08-.03.16-.03.25 0 .07 0 .14.03.21.02.07.05.13.08.19.04.06.09.1.15.13.07.03.15.05.23.05.11 0 .21-.01.31-.05.09-.04.17-.12.21-.21s0 .03.01.05 0 .04.01.06c0 .04.02.07.04.1h.5a.845.845 0 01-.05-.17c0-.07-.01-.15-.01-.22v-1.07c0-.08 0-.17-.03-.25a.564.564 0 00-.11-.2.478.478 0 00-.23-.13c-.12-.03-.25-.05-.38-.05-.09 0-.19.01-.28.03-.08.02-.16.06-.23.11s-.12.12-.15.19c-.04.09-.06.2-.06.3v.05h.47v-.06c0-.07.02-.14.06-.19.05-.05.11-.08.18-.07zm107.58-.3v.36h.26v1.17c0 .09 0 .17.02.26 0 .06.03.12.07.16s.09.07.15.08c.08.02.16.02.25.02h.34v-.37h-.12c-.08 0-.13-.02-.15-.05a.329.329 0 01-.04-.17v-1.1h.3v-.36h-.3v-.58h-.52v.58zm-23.01 0v.36h.27v1.17c0 .09 0 .17.02.26 0 .06.03.12.07.16s.09.07.15.08c.08.02.16.02.25.02h.34v-.37h-.12c-.06 0-.11-.01-.15-.05a.329.329 0 01-.04-.17v-1.1h.3v-.36h-.3v-.58h-.52v.58zm-3.02 0v.36h.27v1.17c0 .09 0 .17.02.26 0 .06.03.12.07.16s.09.07.15.08c.08.01.16.02.25.02h.34v-.37h-.12c-.08 0-.13-.02-.15-.05a.329.329 0 01-.04-.17v-1.1h.3v-.36h-.3v-.58h-.52v.58zm-7.84 0v.36H84v1.17c0 .09 0 .17.02.26 0 .06.03.12.07.16s.09.07.15.08c.08.02.16.02.25.02h.34v-.37h-.12c-.08 0-.13-.02-.15-.05a.329.329 0 01-.04-.17v-1.1h.3v-.36h-.3v-.58H84v.58zm-10.79 0v.36h.27v1.17c0 .09 0 .17.02.26 0 .06.03.12.07.16s.09.07.15.08c.08.02.16.02.25.02h.34v-.37h-.11c-.06 0-.11-.01-.15-.05a.329.329 0 01-.04-.17v-1.1h.3v-.36h-.3v-.58h-.52v.58h-.27zm-6.07 0v.36h.27v1.17c0 .09 0 .17.02.26 0 .06.03.12.07.16s.09.07.15.08c.08.01.16.02.25.02h.34v-.37h-.12c-.08 0-.13-.02-.15-.05a.329.329 0 01-.04-.17v-1.1h.3v-.36h-.3v-.58h-.52v.58zm-18.48 0v.36h.27v1.17c0 .09 0 .17.02.26 0 .06.03.12.07.16s.09.07.15.08c.08.02.16.02.25.02h.34v-.37h-.12c-.08 0-.13-.02-.15-.05a.329.329 0 01-.04-.17v-1.1h.3v-.36h-.3v-.58h-.52v.58zm-15.74 0v.36h.26v1.17c0 .09 0 .17.02.26 0 .06.03.12.07.16s.09.07.15.08c.08.01.16.02.25.02h.34v-.37h-.12c-.08 0-.13-.02-.15-.05a.329.329 0 01-.04-.17v-1.1h.3v-.36h-.3v-.58h-.52v.58zm83.98.35c.06 0 .13.02.17.06.04.07.06.15.05.22v1.41h.52v-1.51a.586.586 0 00-.14-.44c-.1-.1-.24-.15-.38-.14-.11 0-.21.02-.3.07s-.17.13-.22.22v-.24h-.5v2.04h.52v-1.35c0-.23.09-.34.28-.34zm-3.71 0c.06 0 .12.02.16.07.04.06.05.13.05.2v1.43h.52v-1.48a.712.712 0 00-.12-.45.473.473 0 00-.38-.16c-.11 0-.22.03-.32.08a.52.52 0 00-.2.24.351.351 0 00-.17-.24.47.47 0 00-.3-.08c-.1 0-.2.02-.29.06-.09.05-.17.12-.22.2v-.21h-.5v2.04h.52v-1.34c0-.09.02-.19.07-.27.05-.06.12-.09.2-.08.06 0 .12.02.16.07.04.06.05.13.05.2v1.43h.52v-1.34c0-.09.02-.19.07-.27.05-.06.12-.09.2-.08zm-2.93 0c.06 0 .13.02.17.06.04.07.06.15.05.22v1.41h.52v-1.51a.586.586 0 00-.14-.44c-.1-.1-.24-.15-.38-.14-.11 0-.21.02-.3.07s-.17.13-.22.22v-.24h-.5v2.04h.52v-1.35c0-.23.09-.34.28-.34zm-2.1-.35v2.04h.52v-1.22c0-.06.01-.12.03-.17a.338.338 0 01.21-.17.59.59 0 01.14-.02h.16v-.5h-.1c-.1 0-.2.03-.28.09s-.15.15-.19.24v-.27h-.5zm-3.67 0l.53 2.04h.61l.51-2.04h-.52l-.28 1.46-.29-1.46h-.54zm-21.26 0v2.04h.52v-2.04zm-1.15.35c.06 0 .13.02.17.06.04.07.06.15.05.22v1.41h.52v-1.51a.579.579 0 00-.13-.44c-.1-.1-.24-.14-.38-.14-.11 0-.21.02-.3.07s-.17.13-.22.22v-.24h-.5v2.04h.52v-1.35c0-.22.09-.34.27-.34zm-6.75 0c.06 0 .13.02.17.06.04.07.06.15.05.22v1.41h.52v-1.51a.622.622 0 00-.13-.44c-.1-.1-.24-.15-.38-.14-.2-.01-.39.09-.5.26v-.88h-.52v2.71h.52v-1.35c0-.23.09-.34.28-.34zm-4.22-.35v.36h.26v1.68h.52v-1.68h.3v-.36h-.3v-.18s.01-.09.05-.12c.05-.03.1-.04.15-.04h.1v-.37c-.08 0-.17-.01-.28-.01-.08 0-.15 0-.23.02a.38.38 0 00-.28.23c-.03.07-.04.15-.04.23v.23h-.27zm-4.74 0v2.04h.52v-2.04zm-5.05 0v2.04h.52v-1.22c0-.06 0-.12.03-.17a.338.338 0 01.21-.17.59.59 0 01.14-.02h.16v-.5h-.1c-.1 0-.2.03-.28.09-.08.07-.15.15-.19.24v-.27h-.5zm-5.81.35c.06 0 .13.02.17.06.04.07.06.15.05.22v1.41h.52v-1.51a.586.586 0 00-.14-.44c-.1-.1-.24-.15-.38-.14-.11 0-.21.02-.3.07s-.17.13-.22.22v-.24h-.5v2.04h.53v-1.35c0-.23.09-.34.27-.34zm-4.74 0c.06 0 .13.02.17.06.04.07.06.14.05.22v1.41h.52v-1.51a.622.622 0 00-.13-.44c-.1-.1-.24-.14-.38-.14-.2-.01-.39.09-.5.26v-.88h-.52v2.71h.52v-1.35c0-.23.09-.34.28-.34zm-2.89-.35v2.04h.52v-2.04zm-3.19 0v.36h.27v1.68h.52v-1.68h.3v-.36h-.3v-.18s.01-.09.05-.12c.05-.03.1-.04.16-.04h.1v-.37c-.08 0-.17-.01-.28-.01-.08 0-.15 0-.23.02a.38.38 0 00-.28.23c-.03.07-.04.15-.04.23v.23h-.27zm-1.72-.67v2.71h.52v-2.71zm-.95 0v2.71h.52v-2.71zm-3.26.67v.36h.27v1.68h.52v-1.68h.3v-.36h-.3v-.18s.01-.09.05-.12c.05-.03.1-.04.16-.04h.1v-.37c-.08 0-.17-.01-.28-.01-.08 0-.15 0-.23.02a.38.38 0 00-.28.23c-.03.07-.04.15-.04.23v.23h-.27zm-3.72.35c.06 0 .13.02.17.06.04.07.06.15.05.22v1.41h.52v-1.51a.586.586 0 00-.14-.44c-.1-.1-.24-.15-.38-.14-.2-.01-.39.09-.5.26v-.88h-.52v2.71h.52v-1.35c0-.22.09-.34.28-.34zm-12.44.85l.44.84h.58l-.67-1.24.59-.8h-.57l-.53.76v-1.43h-.52v2.71h.52v-.59l.19-.24zm-10.33-.85c.06 0 .13.02.17.06.04.07.06.14.05.22v1.41h.52v-1.51a.622.622 0 00-.13-.44c-.1-.1-.24-.14-.38-.14-.11 0-.21.02-.3.07s-.17.13-.22.22v-.24h-.5v2.04h.52v-1.35c0-.23.09-.34.28-.34zm70.98-1.04v.45h.52v-.45zm-16.87 0v.45h.52v-.45zm-18.48 0v.45h.52v-.45zm-6.44-1.39c0 .16.06.31.18.4.15.1.33.15.51.14.24.02.47-.05.65-.2.14-.16.21-.38.2-.59V8.98h-.5v.23a.51.51 0 00-.19-.22.465.465 0 00-.23-.06c-.12 0-.24.03-.34.09-.08.06-.15.15-.19.25-.05.11-.08.22-.09.34s-.02.24-.02.36c-.02.27.03.55.16.79.1.16.28.25.47.24.08 0 .17-.02.24-.07.08-.04.15-.11.2-.18v.27c0 .09-.02.18-.06.25-.05.07-.14.11-.22.1-.03 0-.06 0-.09-.02-.03-.01-.06-.02-.08-.04-.05-.03-.08-.09-.08-.16h-.5zm16.35.13v.39h.21c.1 0 .2 0 .3-.03.08-.02.15-.06.2-.11.06-.07.12-.15.15-.24.05-.13.1-.27.13-.41l.49-1.9h-.52l-.27 1.41-.3-1.41h-.55l.57 2.04c0 .07-.03.14-.07.2-.05.06-.13.08-.21.08-.05 0-.09 0-.14-.01zm39.01-.86v.59h.2v.05c0 .07-.02.13-.05.19s-.08.09-.15.11v.27c.09 0 .17-.03.25-.07.06-.04.11-.09.15-.15.04-.07.07-.14.08-.22.01-.09.02-.18.02-.27v-.49h-.5zm-7.6-.21v.08c0 .09 0 .19.03.28.02.09.06.17.11.24.06.07.14.13.23.17.12.05.25.08.38.08v.33h.24v-.33c.21 0 .41-.08.57-.21.14-.16.22-.38.2-.59 0-.09-.01-.18-.03-.27a.498.498 0 00-.1-.19.47.47 0 00-.15-.13c-.06-.04-.13-.07-.19-.1l-.3-.12v-.72c.06.02.12.06.14.13.03.08.04.16.04.24h.52v-.05c0-.08-.01-.17-.03-.25s-.06-.16-.11-.22a.503.503 0 00-.22-.16.853.853 0 00-.35-.08V8.1h-.24v.26c-.2.01-.38.09-.53.23-.13.15-.2.35-.18.54 0 .16.04.31.12.45.1.14.24.24.4.28l.19.07v.77s-.09-.03-.12-.06-.05-.06-.07-.1-.02-.09-.03-.13v-.15h-.52zM74.65 8.94h-.02c-.13 0-.26.02-.38.07-.1.04-.18.12-.25.2-.07.1-.11.22-.14.34-.03.15-.04.31-.04.46 0 .16.01.31.04.47.02.12.06.23.13.34.06.09.15.16.25.2.11.04.24.06.36.06h.03c.13 0 .26-.02.38-.06.1-.04.19-.11.25-.2.07-.1.11-.22.14-.34.03-.15.04-.31.04-.46 0-.16-.01-.31-.04-.47a.888.888 0 00-.13-.34.546.546 0 00-.25-.2.802.802 0 00-.37-.06zm-46.9 0h-.02c-.13 0-.26.02-.38.07-.1.04-.19.12-.25.2-.07.1-.11.22-.14.34-.03.15-.04.31-.04.46 0 .16.01.31.04.47.02.12.06.23.13.34.06.09.15.16.25.2.11.04.24.06.36.06h.03c.13 0 .26-.02.38-.06.1-.04.19-.11.25-.2.07-.1.11-.22.14-.34.03-.15.04-.31.04-.46 0-.16-.01-.31-.04-.47a.888.888 0 00-.13-.34.546.546 0 00-.25-.2.802.802 0 00-.37-.06zm74.18-.59c-.16 0-.33.03-.47.12-.11.08-.2.19-.25.32-.06.15-.09.3-.1.46-.01.17-.02.35-.02.54 0 .2 0 .4.04.6.02.14.07.28.14.4.06.1.15.18.26.22.13.05.27.07.41.06.16 0 .33-.03.47-.11.11-.08.2-.19.25-.31.06-.15.09-.3.1-.46.01-.17.02-.35.02-.54 0-.2-.01-.4-.04-.6a.959.959 0 00-.14-.4.582.582 0 00-.26-.23 1.14 1.14 0 00-.41-.07zm-1.86 0c-.16 0-.33.03-.47.12-.11.08-.2.19-.25.32-.06.15-.09.3-.1.46-.01.18-.02.36-.02.54 0 .2.01.4.04.6.02.14.07.28.14.4.06.1.15.18.26.22.13.05.27.07.41.06.16 0 .33-.03.47-.11.11-.08.2-.19.25-.31.06-.15.09-.3.1-.46s.02-.34.02-.54-.01-.4-.04-.6a.959.959 0 00-.14-.4.582.582 0 00-.26-.23 1.14 1.14 0 00-.41-.07zm-1.86 0c-.16 0-.33.03-.47.12-.11.08-.2.19-.25.32-.06.15-.09.3-.1.46-.01.17-.02.35-.02.54 0 .2 0 .4.04.6.02.14.07.28.14.4.06.1.15.18.26.22.13.05.27.07.41.06.16 0 .33-.03.47-.11.11-.08.2-.19.25-.31.06-.15.09-.3.1-.46.01-.17.02-.35.02-.54 0-.2-.01-.4-.04-.6a.959.959 0 00-.14-.4.582.582 0 00-.26-.23 1.14 1.14 0 00-.41-.07zm-2.8 0a.79.79 0 00-.47.12c-.11.08-.2.19-.25.32-.06.15-.09.3-.1.46-.01.17-.02.35-.02.54 0 .2.01.4.04.6.02.14.07.28.14.4.06.1.15.18.26.22.13.05.27.07.41.06.16 0 .33-.03.47-.11.11-.08.2-.19.25-.31.06-.15.09-.3.1-.46.01-.17.02-.35.02-.54 0-.2-.01-.4-.04-.6-.02-.14-.07-.28-.14-.4a.582.582 0 00-.26-.23 1.14 1.14 0 00-.41-.07zm-2.7 1.92v.07c0 .08 0 .16.03.24.02.09.06.17.11.24.06.08.15.14.24.18.13.05.27.07.41.07s.29-.02.42-.07c.1-.04.2-.11.26-.2.07-.09.11-.2.14-.31a1.84 1.84 0 00.01-.72c-.02-.1-.05-.19-.1-.27s-.12-.15-.2-.2a.6.6 0 00-.32-.07c-.1 0-.2.01-.3.05-.08.03-.15.08-.2.15l.06-.61h.99V8.4h-1.4l-.1 1.46h.49c0-.07.03-.13.08-.18s.11-.07.18-.07c.05 0 .1 0 .15.03.04.02.08.05.1.09.03.05.05.11.05.17.01.09.02.18.01.28 0 .13-.02.27-.07.39-.05.09-.14.14-.24.13-.05 0-.1-.01-.14-.04s-.06-.07-.08-.11c-.02-.05-.03-.09-.03-.14v-.14h-.52zm-7.53.1v.07c0 .09.01.18.03.27.02.08.06.15.12.2.07.06.15.1.23.12.12.03.24.04.37.04.1 0 .2 0 .3-.03.09-.02.17-.06.24-.11s.12-.12.16-.2c.04-.09.06-.19.06-.28 0-.13-.03-.26-.1-.37a.68.68 0 00-.35-.22l-.32-.11a.4.4 0 01-.18-.1.239.239 0 01-.05-.14c0-.06.02-.13.08-.16.05-.04.11-.06.17-.05.07 0 .14.02.18.07.04.07.06.15.05.23h.47v-.08c0-.16-.05-.32-.17-.43a.77.77 0 00-.53-.15c-.12 0-.23.01-.34.05-.09.03-.17.07-.23.13-.06.05-.1.12-.13.2s-.04.16-.04.24c0 .13.03.25.11.36.09.1.2.17.33.21l.37.13s.09.05.13.08c.04.04.06.09.06.15 0 .07-.02.14-.07.18a.33.33 0 01-.19.06.28.28 0 01-.2-.08.332.332 0 01-.07-.21v-.07h-.47zM84.11 9.3c.07 0 .14.02.19.07.04.05.06.12.06.18s-.01.11-.05.16c-.04.04-.1.07-.16.08l-.3.08c-.08.02-.16.05-.23.09-.06.03-.12.07-.16.12s-.07.11-.09.18c-.02.08-.03.16-.03.25 0 .07 0 .14.03.21.02.07.04.13.08.19s.09.1.15.13c.07.03.15.05.23.05.11 0 .21-.01.31-.05.09-.04.17-.12.21-.21s0 .03.01.05 0 .04.01.06c0 .04.02.07.04.11h.5c-.02-.06-.04-.11-.05-.17a.813.813 0 01-.01-.22V9.59c0-.08 0-.17-.03-.25a.49.49 0 00-.11-.2.611.611 0 00-.22-.13c-.12-.04-.25-.05-.38-.05-.09 0-.19.01-.28.03-.08.02-.16.05-.23.11-.07.05-.12.12-.15.19-.04.09-.06.2-.06.3v.05h.47v-.06c0-.07.02-.14.06-.19.05-.05.11-.08.18-.07zm-1.77-.36c-.15 0-.29.02-.43.09-.1.05-.19.14-.24.23-.06.1-.1.22-.11.34-.02.13-.03.26-.03.39 0 .14 0 .27.02.38 0 .12.04.24.09.35s.13.19.23.25c.14.07.29.1.44.09.2.02.4-.05.55-.19a.81.81 0 00.19-.54h-.47c0 .1-.03.2-.08.29-.04.06-.12.1-.19.1-.04 0-.09-.01-.12-.04-.04-.03-.06-.07-.08-.11-.02-.05-.04-.1-.04-.15 0-.06-.01-.12-.01-.18v-.16h1.04v-.12c0-.14 0-.28-.03-.43-.02-.12-.06-.23-.11-.33a.523.523 0 00-.23-.21.812.812 0 00-.37-.07zm-4.94.36c.07 0 .14.02.19.07.04.05.06.12.06.18s-.01.11-.05.16c-.04.04-.1.07-.16.08l-.3.08c-.08.02-.16.05-.23.09-.06.03-.12.07-.16.12s-.08.11-.09.18c-.02.08-.03.16-.03.25 0 .07 0 .14.03.21.02.07.04.13.08.19s.09.1.15.13c.07.03.15.05.23.05.1 0 .21-.01.31-.05.09-.04.17-.12.21-.21v.02s.02.06.02.09c0 .04.02.07.04.11h.5a.845.845 0 01-.05-.17c-.01-.07-.01-.15-.01-.22V9.59c0-.08 0-.17-.03-.25-.02-.08-.05-.14-.11-.2s-.14-.1-.22-.13c-.12-.04-.25-.05-.38-.05-.09 0-.19.01-.28.03-.08.02-.16.06-.23.11s-.12.12-.15.19c-.04.09-.06.2-.06.3v.05h.47v-.06c0-.07.02-.14.06-.19.05-.05.11-.08.18-.07zm-6.98-.36a.516.516 0 00-.47.25c-.12.26-.17.54-.15.82-.02.28.03.56.15.82.1.16.28.26.47.25.09 0 .18-.02.27-.05a.52.52 0 00.19-.2v.22h.5V8.34h-.52v.86h-.01c-.05-.07-.11-.14-.19-.18s-.17-.06-.25-.06zm-1.63 0a.86.86 0 00-.42.09c-.1.05-.19.14-.25.23-.06.1-.1.22-.11.34-.02.13-.03.26-.03.39 0 .12 0 .25.02.38 0 .12.04.24.09.35.05.1.13.19.23.25.14.07.29.1.44.09.2.02.4-.05.55-.19a.81.81 0 00.19-.54h-.47c0 .1-.03.2-.08.29-.04.06-.12.1-.19.1-.04 0-.09-.01-.12-.04s-.06-.07-.08-.11c-.02-.05-.04-.1-.04-.15 0-.06-.01-.12-.01-.18v-.16h1.04v-.12c0-.14 0-.28-.03-.43-.02-.12-.06-.23-.11-.33a.583.583 0 00-.23-.21.83.83 0 00-.38-.07zm-3.97.05v1.51c-.02.16.03.31.13.44.11.09.24.14.38.13.1 0 .21-.02.3-.06.09-.05.17-.12.22-.22v.24h.5V8.99h-.52v1.35c0 .22-.09.34-.28.34-.06 0-.13-.02-.17-.06a.329.329 0 01-.05-.22V8.99h-.52zm-1.81 1.37v.07c0 .09.01.18.03.27.02.08.06.15.12.2.07.06.15.1.23.12.12.03.24.04.37.04.1 0 .21 0 .31-.03.09-.02.17-.06.24-.11s.12-.12.16-.2c.04-.09.06-.19.06-.28 0-.13-.03-.26-.1-.37a.75.75 0 00-.35-.22l-.31-.11a.4.4 0 01-.18-.1.239.239 0 01-.05-.14c0-.06.02-.13.07-.16.05-.04.11-.06.17-.05.07 0 .14.02.18.07.04.07.06.15.05.23h.47v-.08c0-.16-.05-.32-.17-.43a.77.77 0 00-.53-.15c-.12 0-.23.01-.34.05-.09.03-.17.07-.23.13-.06.05-.1.12-.13.2s-.04.16-.04.24c0 .13.03.25.11.36.09.1.2.18.33.21l.37.13s.09.05.13.08c.04.04.06.09.05.15 0 .07-.02.14-.07.18s-.12.06-.19.06a.28.28 0 01-.2-.08.332.332 0 01-.07-.21v-.07h-.47zM54.5 9.29c.07 0 .14.02.19.07.04.05.06.12.05.18 0 .06-.01.11-.05.16-.04.04-.1.07-.16.08l-.3.08c-.08.02-.16.05-.23.09-.06.03-.12.07-.16.12s-.07.11-.09.18c-.02.08-.03.16-.03.25 0 .07 0 .14.03.21.02.07.04.13.08.19s.09.1.15.13c.07.03.15.05.23.05.1 0 .21-.01.31-.05.09-.04.17-.12.21-.21v.02s.02.06.02.09c0 .04.02.07.04.11h.5c-.02-.06-.04-.11-.05-.17a.813.813 0 01-.01-.22V9.58c0-.08 0-.17-.03-.25-.02-.08-.05-.14-.11-.2s-.14-.1-.22-.13c-.12-.04-.25-.05-.38-.05-.09 0-.19.01-.28.03-.08.02-.16.06-.23.11s-.12.12-.15.19c-.04.09-.06.2-.06.3v.05h.47v-.06c0-.07.02-.14.06-.19.05-.05.11-.08.18-.07zm-3.07-.36a.86.86 0 00-.42.09c-.1.05-.19.14-.25.23a.85.85 0 00-.11.34c-.02.13-.03.26-.03.39 0 .12 0 .25.02.38 0 .12.04.24.09.35.05.1.13.19.23.25.14.07.29.1.44.09.2.02.4-.05.55-.19a.81.81 0 00.19-.54h-.47c0 .1-.04.2-.08.29-.04.06-.12.1-.19.1-.04 0-.09-.01-.12-.04s-.06-.07-.08-.11c-.02-.05-.04-.1-.04-.15 0-.06-.01-.12-.01-.18v-.16h1.03v-.12c0-.14 0-.28-.03-.43a.92.92 0 00-.11-.33.523.523 0 00-.23-.21.812.812 0 00-.37-.07zm-2.09 0a.516.516 0 00-.47.25c-.12.26-.17.54-.15.82-.02.28.03.56.15.82.1.16.28.26.47.25.09 0 .18-.02.27-.05.08-.05.15-.12.2-.2v.22h.5V8.33h-.52v.86c-.05-.07-.11-.14-.19-.18s-.16-.06-.25-.06zm-1.63 0a.86.86 0 00-.42.09c-.1.05-.19.14-.24.23-.06.1-.1.22-.11.34-.02.13-.03.26-.03.39s0 .26.02.38c0 .12.04.24.09.35.05.1.13.19.24.25.14.07.29.1.44.09.2.02.4-.05.55-.19a.81.81 0 00.19-.54h-.47c0 .1-.03.2-.08.29-.04.06-.12.1-.19.1-.04 0-.09-.01-.12-.04s-.06-.07-.08-.11c-.02-.05-.04-.1-.04-.15 0-.06-.01-.12-.01-.18v-.16h1.04v-.12c0-.14 0-.28-.03-.43a.92.92 0 00-.11-.33.583.583 0 00-.23-.21.83.83 0 00-.38-.07zm-4.65 1.42v.07c0 .09.01.18.03.27.02.08.06.15.12.2.07.06.15.1.23.12.12.03.24.04.37.04.1 0 .21 0 .31-.03.09-.02.17-.06.24-.11s.12-.12.16-.2c.04-.09.06-.19.06-.28 0-.13-.03-.26-.1-.37a.75.75 0 00-.35-.22l-.31-.11a.4.4 0 01-.18-.1.239.239 0 01-.05-.14c0-.06.02-.13.07-.16.05-.04.11-.06.17-.05.07 0 .14.02.18.07.04.07.06.15.05.23h.47V9.5c0-.16-.05-.32-.17-.43a.77.77 0 00-.53-.15c-.12 0-.23.01-.34.05-.09.03-.17.07-.23.13-.06.05-.1.12-.13.2s-.04.16-.04.24c0 .13.03.25.11.36.09.1.2.17.33.21l.37.13s.09.05.13.08c.04.04.06.09.06.15 0 .07-.02.14-.07.18s-.12.06-.19.06a.28.28 0 01-.2-.08.332.332 0 01-.07-.21v-.07h-.47zm-7.6-1.07c.07 0 .14.02.19.07.04.05.06.12.05.18 0 .06-.01.11-.05.16-.05.04-.1.07-.16.08l-.3.08c-.08.02-.16.05-.23.09-.06.03-.12.07-.16.12s-.07.11-.09.18c-.02.08-.03.16-.03.25 0 .07 0 .14.03.21.02.07.04.13.08.19s.09.1.15.13c.07.03.15.05.23.05.1 0 .21-.01.31-.05.09-.04.17-.12.21-.21v.02s.02.06.02.09c0 .04.02.07.04.11h.5a.845.845 0 01-.05-.17c-.01-.07-.01-.15-.01-.22V9.57c0-.08 0-.17-.03-.25-.02-.08-.05-.14-.11-.2s-.14-.1-.22-.13c-.12-.04-.25-.05-.38-.05-.09 0-.19.01-.28.03-.08.02-.16.06-.23.11s-.12.12-.15.19c-.04.09-.06.2-.06.3v.05h.47v-.06c0-.07.02-.14.06-.19.05-.05.11-.08.18-.07zm-2.52 1.07v.07c0 .09.01.18.03.27.02.08.06.15.12.2.07.06.15.1.23.12.12.03.24.04.37.04.1 0 .21 0 .31-.03.09-.02.17-.06.24-.11s.12-.12.16-.2c.04-.09.06-.19.06-.28 0-.13-.03-.26-.1-.37a.75.75 0 00-.35-.22l-.31-.11a.4.4 0 01-.18-.1.239.239 0 01-.05-.14c0-.06.02-.13.07-.16.05-.04.11-.06.17-.05.07 0 .14.02.18.07.04.07.06.15.05.23h.47V9.5c0-.16-.05-.32-.17-.43a.77.77 0 00-.53-.15c-.12 0-.23.01-.34.05-.09.03-.17.07-.23.13-.06.05-.1.12-.13.2s-.04.16-.04.24c0 .13.03.25.11.36.09.1.2.18.33.21l.37.13s.09.05.13.08c.04.04.06.09.05.15 0 .07-.02.14-.07.18s-.12.06-.19.06a.28.28 0 01-.2-.08.332.332 0 01-.07-.21v-.07h-.47zm-4.09-1.37v1.51c-.02.16.03.32.14.44.11.09.24.14.38.13.1 0 .21-.02.3-.06.09-.05.17-.12.22-.22v.24h.5V8.98h-.52v1.35c0 .22-.09.34-.27.34-.06 0-.13-.02-.17-.06a.342.342 0 01-.05-.22V8.98h-.52zm57.99 0v.36h.27v1.17c0 .09 0 .17.02.26 0 .06.03.12.07.16s.09.07.15.08c.08.02.16.02.25.02h.34v-.36h-.11c-.06.01-.11 0-.15-.05a.329.329 0 01-.04-.17v-1.1h.3v-.36h-.3v-.58h-.52v.58h-.27zm-8.43 0v.36h.27v1.17c0 .09 0 .17.02.26 0 .06.03.12.07.16s.09.07.15.08c.08.02.16.02.25.02h.34v-.36h-.12c-.08 0-.13-.01-.15-.05a.329.329 0 01-.04-.17v-1.1h.3v-.36h-.3v-.58h-.52v.58h-.26zm-5.83 0v.36h.26v1.17c0 .09 0 .17.02.26 0 .06.03.12.07.16s.09.07.15.08c.08.02.16.02.25.02h.34v-.36h-.12c-.08 0-.13-.02-.15-.05a.329.329 0 01-.04-.17v-1.1h.3v-.36h-.3v-.58h-.52v.58h-.26zm-36.13 0l.53 2.04h.61l.51-2.04h-.52l-.28 1.46-.29-1.46h-.55zm55.22-.29c.18 0 .26.11.26.33v.18c0 .05-.02.1-.04.15s-.05.09-.09.14-.09.1-.15.15l-.22.2a2.226 2.226 0 00-.45.54c-.05.09-.09.19-.11.3s-.04.22-.04.33h1.65v-.42h-1.01c.02-.06.05-.13.09-.18.05-.08.12-.15.19-.21l.3-.28c.07-.06.13-.13.19-.2.05-.06.09-.13.13-.2.03-.07.06-.14.07-.21.02-.08.02-.16.02-.24.01-.2-.06-.4-.2-.54a.843.843 0 00-.61-.19.842.842 0 00-.63.2c-.14.16-.21.37-.2.58v.1h.52c0-.07 0-.14.01-.2 0-.06.02-.11.04-.16s.05-.09.09-.11c.05-.03.1-.04.16-.04zm-10.99-.38v2.71h.52V8.31zm-13.93.67v2.04h.52V9.79c0-.06 0-.12.03-.17a.338.338 0 01.21-.17.59.59 0 01.14-.02h.16v-.5h-.1c-.1 0-.2.03-.28.09s-.15.14-.19.24v-.27h-.5zm-4.79.35c.06 0 .13.02.17.06.04.07.06.14.05.22v1.41h.52V9.51a.579.579 0 00-.13-.44c-.1-.1-.24-.15-.38-.14-.11 0-.21.02-.3.07s-.17.13-.22.22v-.24h-.5v2.04h.52V9.67c0-.22.09-.34.28-.34zm-1.73-.35v2.04h.52V8.98zm-3.62-.67v2.71h.52V8.31zm-.95 0v2.71h.52V8.31zm-3.18.67v2.04H53V9.79c0-.06.01-.12.03-.17a.338.338 0 01.21-.17.59.59 0 01.14-.02h.17v-.5h-.1c-.1 0-.2.03-.27.09-.08.06-.15.14-.19.24v-.27h-.5zm-6.83 0v.36h.27v1.68h.52V9.34h.3v-.36h-.3V8.8s.01-.09.05-.12c.05-.03.1-.04.16-.04h.1v-.37c-.1 0-.19-.01-.28-.01-.08 0-.15 0-.23.03a.38.38 0 00-.28.23c-.03.07-.04.15-.04.23v.23zm-5.58.35c.06 0 .13.02.17.06.04.07.06.14.05.22v1.41h.52V9.51a.586.586 0 00-.14-.44c-.1-.1-.24-.15-.38-.14-.11 0-.21.02-.3.07s-.17.13-.22.22v-.24h-.5v2.04h.52V9.67c0-.22.09-.34.28-.34zm-1.73-.35v2.04h.52V8.98zm-7.57 0v2.04h.52V9.79c0-.06.01-.12.03-.17s.05-.08.09-.11.08-.05.12-.06.09-.02.14-.02h.17v-.5h-.1c-.1 0-.2.03-.28.09s-.15.14-.19.24v-.27h-.5zm-5.68-.67l.7 1.64v1.07h.55V9.95l.7-1.64h-.59l-.38 1.05-.36-1.05h-.61zm35.14-.03v.45h.52v-.45zm-21.89 0v.45h.52v-.45zm59.08 26.31h-5.26l2.64-7.45h.06zm5.86-19.61c-.06 0-.11-.02-.15-.05a.377.377 0 01-.09-.15c-.02-.07-.03-.15-.04-.23v-.29-.29c0-.08.01-.15.04-.23.01-.06.04-.11.09-.15.04-.04.09-.06.15-.05.1 0 .2.07.22.17.05.18.07.36.06.55 0 .19-.01.37-.06.55-.02.1-.12.17-.22.17zm-9.73 0c-.06 0-.12-.03-.15-.08a.455.455 0 01-.05-.2c0-.08.02-.16.07-.22.06-.06.14-.1.23-.11.04 0 .07-.02.11-.03.04-.02.08-.04.11-.07v.4s0 .1-.03.14c-.02.04-.05.07-.08.1s-.07.04-.1.05c-.04.01-.07.02-.11.02zm-23.65 0c-.06 0-.11-.02-.15-.05a.275.275 0 01-.08-.15c-.02-.07-.03-.15-.04-.23v-.29-.29c0-.08.01-.15.04-.23.01-.06.04-.11.08-.15s.1-.06.15-.05c.1 0 .2.07.22.17.05.18.07.36.06.55 0 .19-.01.37-.06.55-.02.1-.12.17-.22.17zm-16.66 0c-.06 0-.12-.03-.15-.08a.455.455 0 01-.05-.2c0-.08.02-.16.07-.22.06-.06.14-.1.23-.11.04 0 .07-.02.11-.03.04-.02.08-.04.11-.07v.4s0 .1-.03.14c-.02.04-.05.07-.08.1s-.07.04-.1.05c-.04.01-.07.02-.11.02zm-6.85 0c-.06 0-.12-.03-.15-.08a.455.455 0 01-.05-.2c0-.08.02-.16.07-.22.06-.06.14-.1.23-.11.04 0 .07-.02.11-.03.04-.02.08-.04.11-.07v.4s0 .1-.03.14c-.02.04-.05.07-.08.1s-.07.04-.1.05c-.04.01-.07.02-.11.02zm-27.8 0c-.06 0-.12-.03-.15-.08a.455.455 0 01-.05-.2c0-.08.02-.16.07-.22.06-.06.14-.1.23-.11.04 0 .07-.02.11-.03.04-.02.08-.04.11-.07v.4c0 .05 0 .1-.03.14-.02.04-.04.07-.08.1-.03.03-.07.04-.1.05-.04.01-.07.02-.11.02zm-8.61 0c-.06 0-.12-.03-.15-.08a.455.455 0 01-.05-.2c0-.08.02-.16.07-.22.06-.06.14-.1.23-.11.04 0 .07-.02.11-.03.04-.02.08-.04.11-.07v.4s0 .1-.03.14c-.02.04-.05.07-.08.1s-.07.04-.1.05c-.04.01-.07.02-.11.02zm77.64-.05c-.11 0-.2-.07-.22-.17-.04-.16-.06-.33-.05-.5 0-.17.01-.34.05-.5.03-.12.16-.2.29-.16.08.02.14.08.16.16.04.16.06.33.05.5 0 .17-.01.34-.05.5-.02.1-.12.18-.22.17zm-22.7 0c-.1 0-.2-.07-.22-.17-.04-.16-.06-.33-.05-.5 0-.17.01-.34.05-.5.03-.12.16-.2.29-.16.08.02.14.08.16.16.04.16.06.33.05.5 0 .17-.01.34-.05.5a.21.21 0 01-.23.17zm-7.77 0c-.11 0-.2-.07-.22-.17-.04-.16-.06-.33-.05-.5 0-.17.01-.34.05-.5.02-.1.11-.18.22-.17.11 0 .2.06.23.17.04.16.06.33.05.5 0 .17-.01.34-.05.5-.02.1-.12.18-.23.17zm-28.13 0c-.11 0-.2-.06-.22-.17-.04-.16-.06-.33-.05-.5 0-.17.01-.34.05-.5.03-.12.16-.2.29-.16.08.02.14.08.16.16.04.16.06.33.05.5 0 .17-.01.34-.05.5-.02.1-.12.18-.22.17zm-2.93 0c-.11 0-.2-.07-.22-.17-.04-.16-.06-.33-.05-.5 0-.17.01-.34.05-.5.03-.12.16-.2.29-.16.08.02.14.08.16.16.04.16.06.33.05.5 0 .17-.01.34-.05.5-.02.1-.12.18-.22.17zm-9.26 0c-.11 0-.2-.06-.22-.17-.04-.16-.06-.33-.05-.5 0-.17.01-.34.05-.5.03-.12.16-.2.29-.16.08.02.14.08.16.16.04.16.06.33.05.5 0 .17-.01.34-.05.5-.02.1-.12.18-.22.17zm-2.93 0c-.11 0-.2-.07-.22-.17-.04-.16-.06-.33-.05-.5 0-.17.01-.34.05-.5.02-.1.11-.18.22-.17.11 0 .2.06.23.17.04.16.06.33.05.5 0 .17-.01.34-.05.5-.02.1-.12.18-.23.17zm101.15-.9h-.53v-.08s0-.1.01-.14c0-.05.02-.09.04-.13s.05-.07.08-.09c.04-.03.08-.04.13-.04s.09.01.13.03.06.06.08.09c.02.05.03.1.04.15 0 .07.01.14.02.21zm-7.94 0h-.53v-.08s0-.1.01-.14c0-.05.02-.09.04-.13s.05-.07.08-.09c.04-.03.08-.04.13-.04s.09 0 .13.03c.04.02.06.06.08.09.02.05.03.1.04.15 0 .07.01.14.01.21zm-10.19 0h-.53v-.08s0-.1.01-.14c0-.05.02-.09.04-.13s.05-.07.08-.09c.04-.03.08-.04.13-.04s.09.01.13.03.06.06.08.09c.02.05.03.1.04.15 0 .07.01.14.01.21zm-10.86 0h-.53v-.08s0-.1.01-.14c0-.05.02-.09.04-.13s.05-.07.08-.09c.04-.03.08-.04.13-.04s.09 0 .13.03c.04.02.07.06.08.09.02.05.03.1.04.15 0 .05.01.12.02.21zm-8.86 0h-.53v-.08s0-.1.01-.14c0-.05.02-.09.04-.13s.05-.07.08-.09c.04-.03.08-.04.13-.04s.09.01.13.03.06.06.08.09c.02.05.03.1.04.15 0 .07.01.14.01.21zm-13.84 0h-.53v-.08s0-.1.01-.14c0-.05.02-.09.04-.13s.05-.07.08-.09c.04-.03.08-.04.13-.04s.09.01.13.03.06.06.08.09c.02.05.03.1.04.15 0 .07.01.14.02.21zm-26.46 0h-.53v-.08s0-.1.01-.14c0-.05.02-.09.04-.13s.05-.07.08-.09c.04-.03.08-.04.13-.04s.09 0 .13.03c.04.02.06.06.08.09.02.05.04.1.04.15s.01.12.01.21zm-12.37 0H24v-.08s0-.1.01-.14c0-.05.02-.09.04-.13s.05-.07.08-.09c.04-.03.08-.04.13-.04s.09.01.13.03c.03.02.06.06.08.09.02.05.04.1.04.15s.01.12.01.21zm77.39-3.32c-.05 0-.1 0-.14-.03s-.08-.08-.09-.13c-.03-.08-.04-.17-.05-.25 0-.11-.01-.24-.01-.41V9.6c0-.17 0-.32.01-.43 0-.09.02-.19.05-.28a.29.29 0 01.09-.15c.04-.03.09-.05.15-.04.05 0 .1.01.14.03.04.03.08.07.09.13.03.08.04.17.05.25 0 .11.01.25.01.42v.29c0 .17 0 .31-.01.43 0 .09-.02.19-.05.28-.01.06-.04.11-.09.15-.04.03-.09.05-.15.04zm-1.86 0c-.05 0-.1 0-.14-.03s-.07-.08-.09-.13c-.03-.08-.04-.17-.05-.25 0-.11-.01-.25-.01-.41V9.6c0-.17 0-.31.01-.43 0-.09.02-.19.05-.28a.29.29 0 01.09-.15c.04-.03.1-.05.15-.04.05 0 .1.01.14.03.04.03.08.07.09.13.03.08.04.17.05.25 0 .11.01.24.01.42v.29c0 .17 0 .32-.01.43 0 .09-.02.19-.05.28-.01.06-.04.11-.09.15-.04.03-.09.05-.15.04zm-1.86 0c-.05 0-.1 0-.14-.03s-.08-.08-.09-.13c-.03-.08-.04-.17-.05-.25 0-.11-.01-.24-.01-.41V9.6c0-.17 0-.32.01-.43 0-.09.02-.19.05-.28a.29.29 0 01.09-.15c.04-.03.1-.05.15-.04.05 0 .1.01.14.03.04.03.08.07.09.13.03.08.04.17.05.25 0 .11.01.25.01.42v.29c0 .17 0 .31-.01.43 0 .09-.02.19-.04.28-.01.06-.04.11-.09.15-.04.03-.09.05-.15.04zm-2.8 0c-.05 0-.1 0-.14-.03s-.07-.08-.09-.13c-.03-.08-.04-.17-.05-.25 0-.11-.01-.25-.01-.41V9.6c0-.17 0-.31.01-.43 0-.09.02-.19.05-.28.01-.06.04-.11.09-.15.04-.03.09-.05.15-.04.05 0 .1.01.14.03.04.03.08.08.09.13.03.08.04.17.05.25 0 .11.01.24.01.42v.29c0 .17 0 .32-.01.43 0 .09-.02.19-.05.28a.29.29 0 01-.09.15c-.04.03-.1.05-.15.04zm-11.37 0c-.06 0-.12-.03-.15-.08a.455.455 0 01-.05-.2c0-.08.02-.15.07-.22.06-.06.14-.1.23-.11.04 0 .07-.02.11-.04s.08-.04.11-.07v.4s0 .1-.03.14c-.02.04-.04.07-.08.1-.03.02-.07.04-.11.05s-.07.02-.11.02zm-6.71 0c-.06 0-.12-.03-.15-.08a.455.455 0 01-.05-.2c0-.08.02-.15.07-.22.06-.06.14-.1.23-.11.04 0 .07-.02.11-.04s.08-.04.11-.07v.4s0 .1-.03.14c-.02.04-.05.07-.08.1-.03.02-.07.04-.1.05-.04.01-.07.02-.11.02zm-2.7 0c-.06 0-.11-.02-.15-.05a.377.377 0 01-.09-.15c-.02-.07-.03-.15-.04-.23v-.29-.29c0-.08.02-.15.04-.23a.29.29 0 01.09-.15c.04-.04.1-.06.15-.05.1 0 .19.07.22.17.05.18.07.36.06.55 0 .19-.01.37-.06.55-.03.1-.12.17-.22.17zm-20.2 0c-.06 0-.12-.03-.15-.08a.455.455 0 01-.05-.2c0-.08.02-.15.07-.22.06-.06.14-.1.23-.11.04 0 .07-.02.11-.04s.08-.04.11-.07v.4s0 .1-.03.14c-.02.04-.04.07-.08.1-.03.02-.07.04-.1.05-.04.01-.07.02-.11.02zm-19.05 0c-.06 0-.12-.03-.15-.08a.455.455 0 01-.05-.2c0-.08.02-.15.07-.22.06-.06.14-.1.23-.11.04 0 .07-.02.11-.04s.08-.04.11-.07v.4s0 .1-.03.14c-.02.04-.05.07-.08.1-.03.02-.07.04-.1.05-.04.01-.07.02-.11.02zm-7.65 0c-.06 0-.11-.02-.15-.05a.275.275 0 01-.08-.15c-.02-.07-.03-.15-.04-.23v-.29-.29c0-.08.01-.15.04-.23.01-.06.04-.11.08-.15s.1-.06.15-.05c.1 0 .2.07.22.17.05.18.07.36.06.55 0 .19-.01.37-.06.55-.03.1-.12.17-.22.17zm62.22-.05v-.67c.07.03.12.08.17.14.04.07.06.15.06.23 0 .07-.02.13-.05.19-.04.06-.1.1-.17.11zm-19.35 0c-.1 0-.2-.07-.22-.17-.04-.16-.06-.33-.05-.5 0-.17.01-.34.05-.5.03-.12.16-.2.29-.16.08.02.14.08.16.16.04.16.06.33.05.5 0 .17-.01.34-.05.5-.02.1-.12.18-.23.17zm-21.08 0c-.11 0-.2-.07-.22-.17-.04-.16-.06-.33-.05-.5 0-.17.01-.34.05-.5.02-.1.12-.17.22-.17.11 0 .2.06.23.17.04.16.06.33.05.5 0 .17-.01.34-.05.5-.02.1-.12.17-.22.17zm-7.56-.08s-.1-.01-.13-.04c-.04-.03-.06-.07-.08-.12s-.03-.11-.04-.17v-.2-.35c0-.08.02-.15.04-.23.01-.05.04-.09.08-.12s.09-.04.14-.04c.1 0 .19.06.21.16.05.17.07.35.06.53 0 .08 0 .16-.01.24 0 .06-.02.13-.05.18-.02.05-.05.09-.09.12s-.09.05-.14.04zm40.64-.82h-.53v-.08s0-.1.01-.14c0-.05.02-.09.04-.13s.05-.07.08-.09c.04-.03.08-.04.13-.04s.09 0 .13.03c.04.02.06.06.08.1.02.05.03.1.04.15 0 .07.01.14.01.21zm-13.56 0h-.53v-.08s0-.1.01-.14c0-.05.02-.09.04-.13s.05-.07.08-.09c.04-.03.08-.04.13-.04s.09 0 .13.03c.04.02.06.06.08.1.02.05.03.1.04.15 0 .07.01.14.02.21zm-17.35 0h-.53v-.08s0-.1.01-.14c0-.05.02-.09.04-.13s.05-.07.08-.09c.04-.03.08-.04.13-.04s.09 0 .13.03c.04.02.06.06.08.1.02.05.04.1.04.15 0 .06.01.13.01.21zm-3.73 0h-.53v-.08s0-.1.01-.14c0-.05.02-.09.04-.13s.05-.07.08-.09c.04-.03.08-.04.13-.04s.09 0 .13.03c.04.02.06.06.08.1.02.05.03.1.04.15 0 .05.01.12.02.21zm41.74-.42a.347.347 0 01-.19-.32c-.02-.13.06-.25.19-.29v.6z"/></g></svg>